<?xml version="1.0" standalone="no"?>
<!DOCTYPE svg PUBLIC "-//W3C//DTD SVG 20010904//EN"
 "http://www.w3.org/TR/2001/REC-SVG-20010904/DTD/svg10.dtd">
<svg version="1.0" xmlns="http://www.w3.org/2000/svg"
 width="51.000000pt" height="36.000000pt" viewBox="0 0 51.000000 36.000000"
 preserveAspectRatio="xMidYMid meet">
<metadata>
Created by potrace 1.10, written by Peter Selinger 2001-2011
</metadata>
<g transform="translate(0.000000,36.000000) scale(0.100000,-0.100000)"
fill="#000000" stroke="none">
<path d="M240 290 c-38 -8 -56 -22 -79 -63 -26 -47 -26 -67 0 -114 30 -53 46
-62 109 -63 43 0 60 5 80 23 67 60 67 133 1 193 -25 23 -69 33 -111 24z m48
-65 c7 -14 23 -30 37 -35 31 -12 32 -28 2 -39 -12 -5 -29 -21 -36 -35 -18 -33
-23 -33 -39 4 -8 18 -21 30 -33 30 -12 0 -19 7 -19 20 0 13 7 20 19 20 12 0
25 12 33 30 16 37 21 37 36 5z"/>
</g>
</svg>
